<?xml version="1.0" encoding="utf-8"?>
<!-- Generator: Adobe Illustrator 25.0.1, SVG Export Plug-In . SVG Version: 6.00 Build 0)  -->
<svg version="1.1" id="Layer_1" focusable="false" xmlns="http://www.w3.org/2000/svg" xmlns:xlink="http://www.w3.org/1999/xlink"
	 x="0px" y="0px" viewBox="0 0 32 32" style="enable-background:new 0 0 32 32;" xml:space="preserve">
<style type="text/css">
	.st0{fill:#FFFFFF;}
</style>
<symbol  id="AngleDownIcon" viewBox="-16 -9.4 32 18.8">
	<path class="st0" d="M-14.9-8.3C-16-7.2-16-7.2-16-6.7v0.5l7.8,7.8C-0.5,9.3-0.4,9.4,0,9.4s0.5-0.1,8.2-7.8L16-6.2v-0.5
		c0-0.5,0-0.5-1.1-1.6C13.2-10,14.1-10.6,6.5-3C3,0.5,0.1,3.4,0,3.4s-2.8-2.7-6.1-6.1C-9.4-6-12.3-8.9-12.6-9
		c-0.3-0.2-0.6-0.3-0.8-0.3C-13.8-9.4-13.9-9.3-14.9-8.3L-14.9-8.3z"/>
</symbol>
<use xlink:href="#AngleDownIcon"  width="32" height="18.8" x="-16" y="-9.4" transform="matrix(6.123234e-17 1 -1 6.123234e-17 16 16)" style="overflow:visible;"/>
</svg>
