<svg xmlns:xlink="http://www.w3.org/1999/xlink" xmlns="http://www.w3.org/2000/svg" width="20" height="20" viewBox="0 0 24 24"><g fill="none" fill-rule="evenodd"><g fill="none"><g fill="none"><g fill="none"><g fill="none"><path fill="#202332" fill-opacity="0" fill-rule="nonzero" d="M0 0H24V24H0z" transform="translate(-56 -892) translate(0 876) translate(40 11) translate(16 5)"></path><path d="M10 23c-1.105 0-2-.895-2-2s.895-2 2-2 2 .895 2 2-.895 2-2 2zm7 0c-1.105 0-2-.895-2-2s.895-2 2-2 2 .895 2 2-.895 2-2 2zM4.208 4H2c-.552 0-1-.448-1-1s.448-1 1-1h3c.464 0 .867.32.973.771L6.733 6H21c.638 0 1.112.589.977 1.212l-1.596 7.373C20.098 16.01 18.834 17.028 17.4 17H9.7c-1.454.028-2.718-.99-2.993-2.381L4.208 4zm2.995 4l1.458 6.195c.094.475.516.814 1.019.805h7.74c.483.01.905-.33 1.003-.822L19.76 8H7.203z" transform="translate(-56 -892) translate(0 876) translate(40 11) translate(16 5)" fill="#202332"></path></g></g></g></g></g></svg>