<svg xmlns:xlink="http://www.w3.org/1999/xlink" xmlns="http://www.w3.org/2000/svg" width="20" height="20" viewBox="0 0 20 19" color="gray"><g fill-rule="evenodd" fill="#3A52FF"><g fill="#3A52FF"><g fill="#3A52FF"><g fill="#3A52FF"><g fill="#3A52FF"><path d="M18.502 19.004c.276 0 .5-.224.5-.5V9.398c0-.058.005-.114.014-.17l-6.44-4.208c-.576-.38-.576-.38-1.148 0L4.988 9.23c.009.055.014.111.014.17v9.105c0 .276.224.5.5.5h3.5v-6c0-.553.448-1 1-1h4c.552 0 1 .447 1 1v6h3.5zm2.5-.5c0 1.38-1.12 2.5-2.5 2.5h-4.5c-.552 0-1-.448-1-1v-6h-2v6c0 .552-.448 1-1 1h-4.5c-1.38 0-2.5-1.12-2.5-2.5v-8.106c-.978 0-1.375-1.258-.574-1.82l7.853-5.196C12 2.139 12 2.139 13.723 3.382l7.853 5.197c.801.56.405 1.82-.573 1.82v8.105z" transform="translate(-334 -894) translate(0 876) translate(316 11) translate(16 5)" fill="#3A52FF"></path></g></g></g></g></g></svg>